<svg xmlns="http://www.w3.org/2000/svg" width="1024" height="1024" viewBox="0 0 1024 1024">
<g>
<path d="M 531.00 775.94 C499.21,781.04 466.18,766.93 447.99,740.48 C443.29,733.65 437.36,720.41 435.67,713.00 C427.68,677.75 441.06,642.99 470.15,623.47 C487.79,611.63 501.92,608.64 534.00,609.93 C550.57,610.60 561.02,606.32 569.25,595.50 C577.11,585.15 578.67,572.88 574.01,558.00 C572.90,554.42 571.44,547.34 570.79,542.25 C569.32,530.84 570.34,522.75 575.52,505.00 C578.50,494.80 579.08,491.37 578.71,486.36 C577.39,468.75 562.64,454.38 544.72,453.24 C540.33,452.96 534.14,453.41 528.92,454.39 C517.87,456.47 496.78,456.50 488.00,454.46 C467.74,449.74 448.89,437.36 438.16,421.73 C419.97,395.21 417.30,358.31 431.60,331.00 C445.31,304.82 470.98,288.21 500.66,286.30 C514.18,285.44 534.16,288.38 539.50,292.03 C540.05,292.40 541.85,293.17 543.50,293.73 C548.42,295.39 562.10,305.37 568.06,311.65 C579.00,323.16 586.10,335.88 590.15,351.16 C592.88,361.50 593.11,379.91 590.63,390.00 C587.60,402.32 588.97,418.15 593.91,427.83 C596.65,433.20 604.50,441.62 609.47,444.54 C617.10,449.01 623.50,450.40 634.50,449.97 C656.94,449.11 670.33,449.69 678.36,451.90 C706.58,459.64 729.59,482.65 737.16,510.70 C740.03,521.33 740.26,540.24 737.65,551.50 C730.28,583.26 706.51,607.34 675.41,614.56 C666.92,616.53 653.22,616.71 641.30,615.03 C622.57,612.38 609.36,615.55 600.91,624.71 C590.68,635.81 588.93,648.28 595.32,664.58 C597.28,669.57 599.42,676.73 600.07,680.49 C601.79,690.39 600.76,708.73 597.99,717.50 C588.16,748.55 562.56,770.88 531.00,775.94 ZM 494.99 421.02 C496.92,421.50 503.45,421.80 509.50,421.68 C519.61,421.48 521.06,421.20 527.44,418.20 C539.62,412.46 547.24,405.17 553.79,393.00 C557.51,386.10 558.97,371.50 557.00,360.89 C555.57,353.17 549.68,341.82 544.21,336.25 C535.87,327.77 519.96,321.00 508.36,321.00 C495.89,321.00 481.81,326.07 473.92,333.39 C459.05,347.20 453.71,362.60 457.44,380.98 C459.70,392.17 463.75,399.79 471.59,407.63 C478.03,414.07 486.38,418.84 494.99,421.02 ZM 644.76 581.53 C657.44,584.17 669.59,582.05 680.89,575.22 C689.95,569.74 695.52,563.72 700.13,554.44 C703.70,547.26 704.20,545.36 704.70,536.94 C705.52,522.96 702.35,511.95 694.43,501.36 C686.00,490.10 670.69,482.84 655.46,482.90 C646.44,482.93 643.89,483.33 637.00,485.80 C614.01,494.03 600.37,520.27 606.58,544.36 C611.32,562.74 626.78,577.79 644.76,581.53 ZM 510.00 742.36 C511.38,742.62 516.08,742.61 520.46,742.33 C534.13,741.46 545.81,735.70 554.95,725.32 C564.11,714.92 567.46,704.82 566.76,689.81 C566.35,680.99 565.95,679.38 562.26,671.81 C556.94,660.89 550.90,654.23 542.31,649.80 C532.78,644.88 526.95,643.50 516.00,643.53 C508.60,643.55 505.20,644.06 500.62,645.82 C475.53,655.44 463.18,677.13 468.00,703.11 C469.33,710.29 474.99,721.57 479.70,726.41 C487.34,734.29 498.62,740.22 510.00,742.36 Z" fill="rgb(36,184,252)"/>
<path d="M 494.99 421.02 C486.38,418.84 478.03,414.07 471.59,407.63 C463.75,399.79 459.70,392.17 457.44,380.98 C453.71,362.60 459.05,347.20 473.92,333.39 C481.81,326.07 495.89,321.00 508.36,321.00 C519.96,321.00 535.87,327.77 544.21,336.25 C549.68,341.82 555.57,353.17 557.00,360.89 C558.97,371.50 557.51,386.10 553.79,393.00 C547.24,405.17 539.62,412.46 527.44,418.20 C521.06,421.20 519.61,421.48 509.50,421.68 C503.45,421.80 496.92,421.50 494.99,421.02 ZM 644.76 581.53 C626.78,577.79 611.32,562.74 606.58,544.36 C600.37,520.27 614.01,494.03 637.00,485.80 C643.89,483.33 646.44,482.93 655.46,482.90 C670.69,482.84 686.00,490.10 694.43,501.36 C702.35,511.95 705.52,522.96 704.70,536.94 C704.20,545.36 703.70,547.26 700.13,554.44 C695.52,563.72 689.95,569.74 680.89,575.22 C669.59,582.05 657.44,584.17 644.76,581.53 ZM 510.00 742.36 C498.62,740.22 487.34,734.29 479.70,726.41 C474.99,721.57 469.33,710.29 468.00,703.11 C463.18,677.13 475.53,655.44 500.62,645.82 C505.20,644.06 508.60,643.55 516.00,643.53 C526.95,643.50 532.78,644.88 542.31,649.80 C550.90,654.23 556.94,660.89 562.26,671.81 C565.95,679.38 566.35,680.99 566.76,689.81 C567.46,704.82 564.11,714.92 554.95,725.32 C545.81,735.70 534.13,741.46 520.46,742.33 C516.08,742.61 511.38,742.62 510.00,742.36 Z" fill="rgb(59,193,254)"/>
</g>
</svg>
